Exact Audio Copy V0.99 prebeta 3 from 28. July 2007

Отчёт EAC об извлечении, выполненном 27. января 2010, 17:07

Men At Work / Men At Work   Definitive Collection

Дисковод: MATSHITADVD-RAM SW-9573S   Adapter: 1  ID: 0

Режим чтения                 : Достоверность
Использование точного потока : Да
Отключение кэша аудио        : Да
Использование указателей C2  : Нет

Коррекция смещения при чтении                     : 102
Способность читать области Lead-in и Lead-out     : Да
Заполнение пропущенных сэмплов тишиной            : Да
Удаление блоков с тишиной в начале и конце        : Нет
При вычислениях CRC использовались нулевые сэмплы : Да
Интерфейс                                         : Установленный внешний ASPI-интерфейс

Выходной формат          : Пользовательский кодировщик
Выбранный битрейт        : 128 kBit/s
Качество                 : Высокий
Добавление ID3-тэга      : Нет
Утилита сжатия           : C:\Program Files\Exact Audio Copy\Flac\flac.exe
Дополнительные параметры : -8 -V -T "ARTIST=%a" -T "TITLE=%t" -T "ALBUM=%g" -T "DATE=%y" -T "TRACKNUMBER=%n" -T "GENRE=%m" -T "COMMENT=EAC FLAC -8" %s


TOC извлечённого CD

     Трек |   Старт  | Длительность | Начальный сектор | Конечный сектор 
    ---------------------------------------------------------------------
       1  |  0:00.00 |    3:43.25   |           0      |      16749      
       2  |  3:43.25 |    3:22.50   |       16750      |      31949      
       3  |  7:06.00 |    3:29.50   |       31950      |      47674      
       4  | 10:35.50 |    6:51.12   |       47675      |      78511      
       5  | 17:26.62 |    3:36.00   |       78512      |      94711      
       6  | 21:02.62 |    3:29.68   |       94712      |     110454      
       7  | 24:32.55 |    3:04.57   |      110455      |     124311      
       8  | 27:37.37 |    3:39.68   |      124312      |     140804      
       9  | 31:17.30 |    3:29.20   |      140805      |     156499      
      10  | 34:46.50 |    3:45.70   |      156500      |     173444      
      11  | 38:32.45 |    4:33.05   |      173445      |     193924      
      12  | 43:05.50 |    4:36.12   |      193925      |     214636      
      13  | 47:41.62 |    4:00.50   |      214637      |     232686      
      14  | 51:42.37 |    6:05.58   |      232687      |     260119      
      15  | 57:48.20 |    3:54.55   |      260120      |     277724      
      16  | 61:43.00 |    3:36.32   |      277725      |     293956      
      17  | 65:19.32 |    3:54.18   |      293957      |     311524      
      18  | 69:13.50 |    3:37.55   |      311525      |     327854      
      19  | 72:51.30 |    3:16.63   |      327855      |     342617      


Характеристики диапазона извлечения и сообщения об ошибках

Выбранный диапазон

     Имя файла C:\Тооренты на раздачу\Музыка на раздачу\Проба флойд\Men At Work   Definitive Collection\Men At Work - Men At Work   Definitive Collection.wav

     Пиковый уровень 100.0 %
     Качество диапазона 100.0 %
     CRC копии 20DC03D2
     Копирование... OK

Ошибок не произошло

 
AccurateRip: сводка
 
Трек  1  точное извлечение (доверие 16)  [512F2B2A]
Трек  2  точное извлечение (доверие 17)  [B08B997D]
Трек  3  точное извлечение (доверие 17)  [1568FA5C]
Трек  4  точное извлечение (доверие 17)  [BC69B02F]
Трек  5  точное извлечение (доверие 17)  [762AE42A]
Трек  6  точное извлечение (доверие 17)  [E24C2B9B]
Трек  7  точное извлечение (доверие 17)  [98840EB7]
Трек  8  точное извлечение (доверие 17)  [276302B4]
Трек  9  точное извлечение (доверие 17)  [BAFD0A16]
Трек 10  точное извлечение (доверие 17)  [235CA1EB]
Трек 11  точное извлечение (доверие 17)  [3D287271]
Трек 12  точное извлечение (доверие 17)  [35E618D8]
Трек 13  точное извлечение (доверие 17)  [E99C480C]
Трек 14  точное извлечение (доверие 17)  [38DE4D05]
Трек 15  точное извлечение (доверие 17)  [AE8207CB]
Трек 16  точное извлечение (доверие 18)  [DA7C32C1]
Трек 17  точное извлечение (доверие 18)  [8B087142]
Трек 18  точное извлечение (доверие 18)  [83FD9E73]
Трек 19  точное извлечение (доверие 18)  [57737E2F]
 
Все треки извлечены точно

Конец отчёта
